<?xml version="1.0" standalone="no"?><!DOCTYPE svg PUBLIC "-//W3C//DTD SVG 1.1//EN"
  "http://www.w3.org/Graphics/SVG/1.1/DTD/svg11.dtd">
<svg t="1512723060804" class="icon" style="" viewBox="0 0 1024 1024" version="1.1" xmlns="http://www.w3.org/2000/svg"
     p-id="1012" xmlns:xlink="http://www.w3.org/1999/xlink" width="64" height="64">
  <defs>
    <style type="text/css"></style>
  </defs>
  <path
    d="M1006.912018 264.530424L759.453705 17.072111c-22.762814-22.762814-59.710661-22.762814-82.472451 0L429.521917 264.530424c-22.825276 22.762814-22.825276 59.710661 0 82.535937l41.194243 41.194243L718.173449 140.801267 883.162382 305.788153 635.702022 553.247489l41.257729 41.256705c22.762814 22.762814 59.710661 22.762814 82.472451 0l247.459337-247.458312c22.76179-22.8263 22.76179-59.774147 0-82.535938z m-453.65992 371.188493L305.792761 883.178253 140.805875 718.191368l247.459337-247.459337-41.257729-41.256705c-22.762814-22.762814-59.710661-22.762814-82.472451 0L17.076719 676.933639c-22.762814 22.8263-22.762814 59.774147 0 82.536961l247.458313 247.458313c22.762814 22.762814 59.710661 22.762814 82.472451 0l247.459337-247.459337c22.825276-22.76179 22.825276-59.709637 0-82.535937l-41.194243-41.193219z m-206.244615 41.194243c22.8263 22.825276 59.710661 22.825276 82.535937 0l247.459337-247.459337c22.762814-22.762814 22.762814-59.646151 0-82.408965-22.8263-22.825276-59.710661-22.825276-82.535937 0L347.007483 594.505218c-22.762814 22.762814-22.762814 59.646151 0 82.408966z"
    p-id="1013" fill="#e6e6e6"></path>
</svg>