<svg width="945px" height="808px" viewBox="0 0 945 808" version="1.1" xmlns="http://www.w3.org/2000/svg" xmlns:xlink="http://www.w3.org/1999/xlink">
    <!-- Generator: Sketch 48.1 (47250) - http://www.bohemiancoding.com/sketch -->
    <desc>Created with Sketch.</desc>
    <defs></defs>
    <g id="Page-1" stroke="none" stroke-width="1" fill="none" fill-rule="evenodd">
        <g id="编辑器-·-有序列表" transform="translate(-1.000000, 0.000000)" fill="#f66039" fill-rule="nonzero">
            <path d="M946,30.2045453 L946,89.2499998 C946,104.995454 932.218719,118.772727 916.468682,118.772727 L384.904957,118.772727 C369.154921,118.772727 355.373639,104.995455 355.37364,89.2499998 L355.37364,30.2045453 C355.37364,14.4590909 369.154921,0.6818175 384.904957,0.6818175 L916.468682,0.6818175 C932.218718,0.6818175 946,14.4590899 946,30.2045453 Z M384.904957,315.590909 L739.280774,315.590909 C755.03081,315.590909 768.812092,301.813637 768.812091,286.068182 L768.812091,227.022727 C768.812091,211.277273 755.03081,197.5 739.280774,197.5 L384.904957,197.5 C369.154921,197.5 355.373639,211.277272 355.37364,227.022727 L355.37364,286.068182 C355.37364,301.813636 369.154921,315.590909 384.904957,315.590909 Z M916.468682,492.727273 L384.904957,492.727273 C369.154921,492.727273 355.373639,506.504545 355.37364,522.25 L355.37364,581.295454 C355.37364,597.040909 369.154921,610.818182 384.904957,610.818182 L916.468682,610.818182 C932.218718,610.818182 946,597.04091 946,581.295454 L946,522.25 C946,506.504545 932.218719,492.727272 916.468682,492.727273 Z M739.280774,689.545455 C755.03081,689.545454 768.812091,703.322727 768.812091,719.068182 L768.812091,778.113636 C768.812092,793.859092 755.03081,807.636364 739.280774,807.636364 L384.904957,807.636364 C369.154921,807.636364 355.37364,793.859091 355.37364,778.113636 L355.37364,719.068182 C355.373639,703.322727 369.154921,689.545455 384.904957,689.545455 L739.280774,689.545455 Z M90.9978235,177.970131 C41.292196,177.970131 0.997823451,138.28279 0.997823451,89.325974 C0.997823451,40.3691582 41.292196,0.6818175 90.9978235,0.6818175 C140.703451,0.6818175 180.997823,40.3691582 180.997823,89.325974 C180.997823,138.28279 140.703451,177.970131 90.9978235,177.970131 Z M91.3591097,670.681818 C41.4539493,670.681818 0.997823451,630.83516 0.997823451,581.681818 C0.997823451,532.528475 41.4539493,492.681818 91.3591097,492.681818 C141.26427,492.681818 181.720396,532.528475 181.720396,581.681818 C181.720396,630.83516 141.26427,670.681818 91.3591097,670.681818 Z" id="Shape"></path>
        </g>
    </g>
</svg>